<svg width="244" height="135" viewBox="0 0 244 135" fill="none" xmlns="http://www.w3.org/2000/svg">
<path opacity="0.1" d="M188.83 0C172.904 0 159.823 5.02941 149.585 15.0882C139.347 24.7745 134.228 37.6275 134.228 53.6471C134.228 61.0981 135.176 68.549 137.072 76C138.968 83.451 142.949 94.6275 149.016 109.529L182.005 190H238.312L213.855 101.706C223.335 97.6078 230.729 91.4608 236.037 83.2647C241.346 75.0686 244 65.1961 244 53.6471C244 37.6275 238.881 24.7745 228.643 15.0882C218.026 5.02941 204.755 0 188.83 0ZM54.6014 0C38.676 0 25.5944 5.02941 15.3567 15.0882C5.1189 24.7745 0 37.6275 0 53.6471C0 61.0981 0.947952 68.549 2.84383 76C4.7397 83.451 8.72105 94.6275 14.7879 109.529L47.7762 190H104.084L79.627 101.706C89.1064 97.6078 96.5004 91.4608 101.809 83.2647C107.117 75.0686 109.772 65.1961 109.772 53.6471C109.772 37.6275 104.653 24.7745 94.4149 15.0882C83.798 5.02941 70.5268 0 54.6014 0Z" fill="white"/>
</svg>
